# xmcd
#
# Track frame offsets: 
#        150
#        11976
#        26723
#        51502
#        76265
#        89455
#        103233
#        119448
#        132084
#        142582
#        162335
#        179653
#        198445
#
# Disc length: 2821 seconds
#
# Revision: 0
# Processed by: cddbd v1.5.2PL0 Copyright (c) Steve Scherf et al.
# Submitted via: ExactAudioCopy v0.99pb5
#
DISCID=b50b030d
DTITLE=The King Roosters - Blues The Hard Way
DYEAR=2009
DGENRE=Blues
TTITLE0=Crescent City Blues
TTITLE1=Going to Mexico
TTITLE2=Mean Mistreater
TTITLE3=King Rooster Blues
TTITLE4=I Wish I Had a Dollar
TTITLE5=Walking the Dog
TTITLE6=Killing Floor
TTITLE7=Help Me
TTITLE8=Drinkin' Tennessee
TTITLE9=Willin'
TTITLE10=Hoochie Coochie Man
TTITLE11=Louisiana
TTITLE12=Bye Bye Johnny
EXTD=
EXTT0=
EXTT1=
EXTT2=
EXTT3=
EXTT4=
EXTT5=
EXTT6=
EXTT7=
EXTT8=
EXTT9=
EXTT10=
EXTT11=
EXTT12=
PLAYORDER=
